<svg width="40" height="40" viewBox="0 0 40 40" fill="none" xmlns="http://www.w3.org/2000/svg">
<circle cx="20" cy="20" r="20" fill="#F59E0B"/>
<path d="M19.9776 17.3732H23.8955H19.9776Z" fill="white"/>
<path d="M19.9776 17.3732H23.8955" stroke="white" stroke-width="1.8" stroke-linecap="round" stroke-linejoin="round"/>
<path d="M15.5074 17.3731L16.0671 17.9328L17.7463 16.2537" fill="white"/>
<path d="M15.5074 17.3731L16.0671 17.9328L17.7463 16.2537" stroke="white" stroke-width="1.8" stroke-linecap="round" stroke-linejoin="round"/>
<path d="M19.9776 22.597H23.8955H19.9776Z" fill="white"/>
<path d="M19.9776 22.597H23.8955" stroke="white" stroke-width="1.8" stroke-linecap="round" stroke-linejoin="round"/>
<path d="M15.5074 22.597L16.0671 23.1567L17.7463 21.4776" stroke="white" stroke-width="1.8" stroke-linecap="round" stroke-linejoin="round"/>
<path d="M12.2388 20.4105V21.9403C12.2388 25.6717 13.7314 27.1642 17.4627 27.1642H21.9403C25.6717 27.1642 27.1642 25.6717 27.1642 21.9403V17.4627C27.1642 13.7314 25.6717 12.2388 21.9403 12.2388H17.4627C13.7314 12.2388 12.2388 13.7314 12.2388 17.4627" stroke="white" stroke-width="1.8" stroke-linecap="round" stroke-linejoin="round"/>
</svg>
