<svg width="40" height="40" viewBox="0 0 40 40" fill="none" xmlns="http://www.w3.org/2000/svg">
<circle cx="20" cy="20" r="20" fill="#E11D48"/>
<path d="M19.7015 21.0075C19.3955 21.0075 19.1418 20.7537 19.1418 20.4478V16.5299C19.1418 16.2239 19.3955 15.9702 19.7015 15.9702C20.0075 15.9702 20.2612 16.2239 20.2612 16.5299V20.4478C20.2612 20.7537 20.0075 21.0075 19.7015 21.0075Z" fill="white" stroke="white" stroke-width="0.8"/>
<path d="M19.7015 23.6194C19.5 23.6194 19.3134 23.5448 19.1716 23.403C19.1045 23.3284 19.0522 23.2463 19.0075 23.1567C18.9701 23.0672 18.9552 22.9701 18.9552 22.8731C18.9552 22.6791 19.0373 22.4851 19.1716 22.3433C19.4477 22.0671 19.9552 22.0671 20.2314 22.3433C20.3657 22.4851 20.4478 22.6791 20.4478 22.8731C20.4478 22.9701 20.4254 23.0672 20.388 23.1567C20.3507 23.2463 20.2985 23.3284 20.2314 23.403C20.0896 23.5448 19.903 23.6194 19.7015 23.6194Z" fill="white" stroke="white" stroke-width="0.8"/>
<path d="M19.7016 27.7238C19.2016 27.7238 18.6942 27.597 18.2464 27.3358L13.8136 24.7761C12.918 24.2537 12.3583 23.291 12.3583 22.2537V17.1492C12.3583 16.1119 12.918 15.1492 13.8136 14.6268L18.2464 12.0671C19.1419 11.5448 20.2539 11.5448 21.1569 12.0671L25.5897 14.6268C26.4852 15.1492 27.0449 16.1119 27.0449 17.1492V22.2537C27.0449 23.291 26.4852 24.2537 25.5897 24.7761L21.1569 27.3358C20.7091 27.597 20.2016 27.7238 19.7016 27.7238ZM19.7016 12.7985C19.3957 12.7985 19.0822 12.8806 18.8061 13.0373L14.3733 15.597C13.821 15.9179 13.4777 16.5074 13.4777 17.1492V22.2537C13.4777 22.888 13.821 23.485 14.3733 23.8059L18.8061 26.3656C19.3583 26.6865 20.0449 26.6865 20.5897 26.3656L25.0225 23.8059C25.5748 23.485 25.9181 22.8955 25.9181 22.2537V17.1492C25.9181 16.5149 25.5748 15.9179 25.0225 15.597L20.5897 13.0373C20.321 12.8806 20.0076 12.7985 19.7016 12.7985Z" fill="white" stroke="white" stroke-width="0.8"/>
</svg>
